PathFileType	4	(X/Y/Z)	Patient4_TMGait_0pt8_01_left_44.trc.trc
DataRate	CameraRate	NumFrames	NumMarkers	Units	OrigDataRate	OrigDataStartFrame	OrigNumFrames
84.337349397590	84.337349397590	6	33	mm	84.337349397590	18	       141
Frame#	Time	Sacral			L.Shoulder			Chest			R.Shoulder			Neck			R.ASIS			L.ASIS			R.Thigh.Superior			R.Thigh.Lateral			R.Thigh.Inferior			R.Patella			L.Thigh.Superior			L.Thigh.Lateral			L.Thigh.Inferior			L.Patella			L.Shank.Superior			L.Shank.Lateral			L.Shank.Inferior			R.Shank.Superior			R.Shank.Lateral			R.Shank.Inferior			R.Heel			R.Midfoot.Superior			R.Midfoot.Lateral			R.Toe			L.Heel			L.Midfoot.Lateral			L.Midfoot.Superior			L.Toe			L.Elbow			L.Wrist			R.Elbow			R.Wrist			
		X1	Y1	Z1	X2	Y2	Z2	X3	Y3	Z3	X4	Y4	Z4	X5	Y5	Z5	X6	Y6	Z6	X7	Y7	Z7	X8	Y8	Z8	X9	Y9	Z9	X10	Y10	Z10	X11	Y11	Z11	X12	Y12	Z12	X13	Y13	Z13	X14	Y14	Z14	X15	Y15	Z15	X16	Y16	Z16	X17	Y17	Z17	X18	Y18	Z18	X19	Y19	Z19	X20	Y20	Z20	X21	Y21	Z21	X22	Y22	Z22	X23	Y23	Z23	X24	Y24	Z24	X25	Y25	Z25	X26	Y26	Z26	X27	Y27	Z27	X28	Y28	Z28	X29	Y29	Z29	X30	Y30	Z30	X31	Y31	Z31	X32	Y32	Z32	X33	Y33	Z33	

18	49.031571428571	923.015296486922	1008.696719906445	532.201535262516	1076.750220955368	1427.838082518380	330.901324642908	1205.129409369893	1356.026057469349	472.177150854698	1156.042370831452	1432.442113537369	657.435891451317	1089.867108059552	1488.822804310682	488.268896590320	1155.803909415630	935.947696209433	624.424936484154	1114.739937029348	953.610150696385	350.730772243993	1144.150080758722	723.258300777967	598.895661090205	1035.833931653882	633.561984367177	662.726026730411	1091.072981862973	566.742836920330	581.564601842402	1071.661982896472	485.243536586675	586.247075742834	1192.286283543406	774.575101953067	382.018510515698	1147.661907030180	645.424715367473	302.689810896118	1252.336421411471	587.687182831839	365.443448923134	1282.174768416029	530.653631947521	361.870418629588	1275.048564604742	461.621523069694	349.778810451223	1231.924922960540	322.536808758552	297.710341974538	1335.437932545381	239.319739719707	352.008339054177	1036.689085034823	402.989120907092	591.399273788612	959.844513274919	302.477538182173	651.967855480194	995.607717739916	206.938754000718	584.207744848164	854.726305619404	44.741037006746	547.909054273354	1026.285223306349	97.263187980636	586.675091419864	937.167474190380	37.633090291200	622.721620373469	1145.594176971851	41.770886571068	614.212712214694	1283.659567045145	47.758626559023	392.470982624618	1359.809038647254	60.155004272420	314.860405083956	1415.797646225796	150.811474389736	332.998774826923	1553.708827111940	143.533209128759	312.769504156842	941.102746206973	1096.493470214622	249.516963045052	885.959565814679	843.912798696552	261.040420814466	1312.239998468628	1127.290977725583	764.466623177942	1566.698419255913	1112.035302025800	717.106245975419	
19	49.043428571429	923.820446478904	1007.599677868312	531.068643535964	1077.362234577527	1426.562750956605	329.643288250989	1205.634783728552	1354.782780685306	471.111061411514	1156.176563370799	1431.610505895318	655.959522772353	1090.000067386062	1487.459011141178	487.079780410567	1156.221929099168	934.366962574989	623.650915176971	1115.720433162358	951.680945363093	349.950653278188	1142.865361022952	721.436499736009	598.325044026391	1033.659075922996	632.641599691771	662.211728227647	1087.952073063072	565.382819921561	580.874743846604	1067.645886737744	483.783211205172	585.591885714858	1190.884988686930	770.461854488025	381.573871358025	1144.395089017100	641.903536262903	302.389008229404	1248.708090396030	583.777034509054	365.598642115953	1278.518696331147	528.139052141308	362.160317721168	1272.649434221280	459.784566976143	349.883427024027	1232.534714837622	319.243778047880	299.207680831941	1338.907980104905	239.020785617065	352.982691172568	1031.667356650434	401.812761537049	590.902674740976	953.678367805074	302.371063794622	651.928115223286	987.825622899919	206.340432807337	584.082208654342	845.204156539568	44.902799312925	548.078218307115	1016.754768041510	97.106444468890	586.626879592004	927.640743184241	37.621109613836	622.859832978046	1136.056573349831	41.514917651554	614.309855005317	1292.384497542781	46.511584777011	395.210586931636	1367.983810595499	59.520680682087	317.198448715984	1422.028835574010	151.621944731899	334.055012163469	1560.157391650778	147.134492992533	313.527095889075	933.969298514045	1099.470991539723	248.715217257754	873.282273882917	848.330451811713	262.343463561440	1319.531926921158	1131.342458380696	761.579297099570	1573.693951983214	1129.954371649087	711.873813451704	
20	49.055285714286	924.738137897656	1006.348025441928	529.737841095627	1077.954474895914	1425.273412900392	328.252359807724	1206.130720885624	1353.538663952740	469.910235664390	1156.224700350586	1430.697972024646	654.361243520977	1090.088887902115	1486.040698194456	485.749566919678	1156.749154534841	932.715861411143	622.656587346676	1116.845905185800	949.746383335369	348.956439284540	1141.952643702171	719.560378265799	597.532321093336	1031.991572572955	631.559806817808	661.483068102440	1085.458246400096	563.874517199336	579.989379769709	1064.235751322769	482.110004095671	584.715625164457	1190.176174735920	766.962673791548	381.024953175040	1142.033878175272	638.682761520872	302.331051753556	1246.185155241598	580.479380119750	365.581618334445	1275.826273403518	525.543330996044	362.318110372536	1270.526420599352	457.445011573483	350.221629468101	1231.674380908920	316.106240326653	301.199701038713	1339.674308842583	237.733457326444	354.548264079747	1027.179156640383	400.404855713394	590.196324916299	947.919450017025	302.185737283950	651.688036523343	980.265830155881	205.610704732917	583.834843424092	835.696339109683	45.097292185470	548.256459101227	1007.228025292477	96.948792648383	586.547967403997	918.131499402030	37.627489863791	623.008575545017	1126.526307331942	41.240412922353	614.418239085071	1296.080358618735	45.396370553764	398.704595034576	1370.871697155193	58.266867297801	320.020883587210	1424.172562270664	150.794229898664	335.671800053385	1562.157662355029	147.277859368106	314.232056799186	927.380496426847	1102.416683981956	247.829419564452	861.939929662043	852.552443985120	263.450746964981	1326.171486453632	1135.244830333969	758.683672623197	1579.243967928191	1146.893566891914	706.792292884100	
21	49.067142857143	925.757780809293	1004.955814982316	528.213508832512	1078.513250247342	1423.968670597370	326.731711593545	1206.615039375242	1352.295862192407	468.561711576795	1156.216729293058	1429.709710473505	652.645488019287	1090.143032204805	1484.576368580184	484.279848397850	1157.376351390386	931.010575877172	621.461888809107	1118.119143198564	947.830050471404	347.736898090019	1141.388815574197	717.637342421345	596.556557790064	1030.781154835811	630.316608650578	660.537369814673	1083.580972947349	562.209425210193	578.937484546741	1061.416575596702	480.208167796345	583.629531804447	1190.230996398879	764.136210865853	380.354406279105	1140.611337441756	635.779577243928	302.529187466653	1244.755784583720	577.745980103685	365.446196754970	1274.053738615615	522.839555619300	362.480391712032	1268.752045313897	454.629138805560	350.851715989065	1229.633938220393	313.045103936017	303.530148620655	1338.106561978383	235.386479447565	356.654526919658	1023.197184834796	398.773342310726	589.287556171987	942.539532562762	301.928540483633	651.236704565892	972.916036069664	204.765052623554	583.464827855583	826.200850684313	45.349362814050	548.443858144592	997.717754140316	96.807854822431	586.449739368945	908.640599361459	37.666793241090	623.163687028970	1117.011089152275	40.944915536540	614.540635016519	1295.192773392064	44.200598684116	402.686294037115	1369.011517297013	56.287336699296	323.132832247815	1422.770084057534	148.240365131404	337.818565096509	1560.339261627526	143.886842033145	314.959373203684	921.463698740602	1105.194788337505	246.884364062900	851.889407937074	856.456480338449	264.315457411317	1332.128745779103	1138.915165201905	755.821642654861	1583.444926542204	1162.749168160531	701.894345773981	
22	49.079000000000	926.867202881782	1003.444742075258	526.496306987965	1079.034749478712	1422.645468772189	325.083253296532	1207.089676246325	1351.059529384958	467.059002228719	1156.179274212642	1428.657241831927	650.820337936500	1090.174417946242	1483.080981005363	482.665351267717	1158.100377302076	929.271069973601	620.097354463078	1119.550487419342	945.956902176688	346.299722543534	1141.148765601680	715.681124842958	595.441933559551	1029.968414288765	628.926608118288	659.376399238009	1082.289425178443	560.394911359182	577.749646004855	1059.158672900403	478.074631431173	582.351260635485	1191.067552315516	761.958104605089	379.550177548899	1140.090828743221	633.190294393479	302.941329295982	1244.320837392350	575.484957951959	365.255300676038	1273.076028482923	520.019867438080	362.767632065352	1267.354781370116	451.417826536451	351.775301566673	1226.767182084491	310.030948315286	306.007148184377	1334.706354678696	232.070430670342	359.187885257225	1019.680488175250	396.946118480383	588.193216440820	937.500343857243	301.622475235336	650.579363514067	965.759285813792	203.836370737490	582.980782073594	816.714242540890	45.698678636892	548.643725723348	988.242523179024	96.702380606006	586.346458449740	899.168944159737	37.758423101667	623.323422360865	1107.519014360180	40.628635813607	614.677800975143	1290.451138861423	42.859814673529	406.858287267959	1363.236262324889	53.646087122452	326.328789767573	1418.562390957972	144.093839655548	340.419648428502	1555.517594441981	137.224368475720	315.797113383666	916.323068104863	1107.670418880023	245.892654504198	843.112948839076	859.930678668731	264.893424895832	1337.377921833911	1142.264689004577	753.031318508494	1586.398197737623	1177.434393993504	697.208804923389	
23	49.090857142857	928.052537891531	1001.845961968773	524.585551473222	1079.523850150167	1421.302890432104	323.308060373786	1207.559360684338	1349.842797803674	465.404064210733	1156.131564535226	1427.561913436273	648.898221620718	1090.196020774438	1481.579666113258	480.895314283262	1158.923882223818	927.522411161313	618.597410412724	1121.151018949846	944.158296325571	344.671544282975	1141.210319161559	713.714476451964	594.227827232833	1029.496457049533	627.421415049175	658.005983820069	1081.539711025330	558.456731838140	576.453023188432	1057.426504266937	475.722273393332	580.904432405790	1192.647406905689	760.341693867721	378.609340367033	1140.383270980831	630.909196499921	303.477170727247	1244.721039243814	573.597078182293	365.066492322273	1272.718896089278	517.115209375633	363.253935143633	1266.330829039855	447.946588822344	352.932198811584	1223.454829665754	307.087950810600	308.424238303287	1330.052304518567	228.015606917523	361.979959510478	1016.581652623293	394.970543485448	586.938443840763	932.762273283946	301.308620979108	649.737797076757	958.779611365217	202.875870383258	582.401698026663	807.233971390484	46.203047932077	548.863966067254	978.827363265942	96.649434727629	586.253705447186	889.718692787530	37.927695378934	623.489702257937	1098.057779271803	40.295584095087	614.827756300267	1282.779097809424	41.430316875376	410.926406986322	1354.569515835159	50.545370814245	329.410488358188	1412.392926231835	138.683614275217	343.353426744406	1548.594025537809	127.868820697468	316.815711102824	912.039902000830	1109.718630003180	244.854504535440	835.616476996650	862.872501219759	265.144909402445	1341.896021745703	1145.203557044560	750.345882149945	1588.204939703628	1190.874025607048	692.760145311265	
